<?xml version="1.0" encoding="UTF-8" standalone="no"?>
<svg width="24px" height="24px" viewBox="0 0 24 24" version="1.1" xmlns="http://www.w3.org/2000/svg" xmlns:xlink="http://www.w3.org/1999/xlink">
    <!-- Generator: Sketch 40.3 (33839) - http://www.bohemiancoding.com/sketch -->
    <title>plum-blossom</title>
    <desc>Created with Sketch.</desc>
    <defs></defs>
    <g id="Symbols" stroke="none" stroke-width="1" fill="none" fill-rule="evenodd">
        <g id="plum-blossom" fill="#000000">
            <path d="M17.0861973,4.37747169 C16.2447113,2.41825907 14.2977298,1.04614258 12.0302734,1.04614258 C9.68883229,1.04614258 7.68912085,2.50926137 6.89553726,4.57110079 C6.88005649,4.57098224 6.86456163,4.57092285 6.84905291,4.57092285 C3.56571997,4.57092285 0.904052734,7.23259009 0.904052734,10.515923 C0.904052734,12.1654795 1.57588102,13.658122 2.66084304,14.7351561 C2.50460457,15.2452453 2.42053223,15.7868768 2.42053223,16.3481445 C2.42053223,19.3857107 4.8829661,21.8481445 7.92053223,21.8481445 C9.54560221,21.8481445 11.0060606,21.1433586 12.0129191,20.022775 C13.0187886,21.125906 14.4676197,21.8181152 16.078125,21.8181152 C19.1156911,21.8181152 21.578125,19.3556814 21.578125,16.3181152 C21.578125,15.6880778 21.4721884,15.0827831 21.2771562,14.5190721 C22.3490562,13.443819 23.0117188,11.9603678 23.0117188,10.3221436 C23.0117188,7.04537116 20.3605447,4.38781363 17.0861973,4.37747169 Z M12,24 C18.627417,24 24,18.627417 24,12 C24,5.372583 18.627417,0 12,0 C5.372583,0 0,5.372583 0,12 C0,18.627417 5.372583,24 12,24 Z" id="Combined-Shape"></path>
        </g>
    </g>
</svg>